<?xml version="1.0" encoding="utf-8" ?>
<svg xmlns="http://www.w3.org/2000/svg" xmlns:xlink="http://www.w3.org/1999/xlink" width="285" height="285">
	<path fill="#FEFEFE" transform="scale(0.27832 0.27832)" d="M0 0L1024 0L1024 1024L0 1024L0 0Z"/>
	<path fill="#020100" transform="scale(0.27832 0.27832)" d="M631.559 80.7164C646.501 79.4577 662.397 80.4407 677.365 81.1796C756 85.0615 832.177 107.177 898.312 150.352Q910.47 158.193 922.014 166.913C928.936 172.138 948.351 189.119 955.459 191.482C955.442 216.11 956.275 241.006 954.829 265.586C947.124 266.457 940.532 265.371 933.478 262.102C921.678 256.633 911.392 246.245 900.724 238.792Q886.203 228.65 870.997 219.566Q855.791 210.482 839.978 202.502C816.263 190.577 790.313 181.889 764.618 175.386C676.741 153.147 590.289 159.32 503.017 181.216C466.337 190.418 430.739 203.079 394.895 214.993C369.37 223.456 344.33 233.31 318.926 242.114C287.336 253.061 255.398 263.827 223.085 272.414Q212.285 275.365 201.391 277.948Q190.496 280.53 179.52 282.741Q168.545 284.951 157.5 286.788Q146.456 288.624 135.355 290.084Q124.254 291.544 113.111 292.626Q101.967 293.708 90.7928 294.411Q79.6187 295.113 68.4272 295.436Q57.2356 295.758 46.0396 295.7C46.6774 285.647 46.2193 275.491 46.175 265.42Q46.1019 243.507 46.4508 221.598C61.1079 221.485 75.5766 221.072 90.1789 219.692C123.159 216.574 156.021 209.737 188.088 201.542Q240.036 187.986 290.783 170.462C367.284 144.06 441.202 113.423 520.455 95.333C558.359 86.6813 592.751 82.5968 631.559 80.7164Z"/>
	<path fill="#F5C956" transform="scale(0.27832 0.27832)" d="M629.469 144.712Q633.593 144.462 637.721 144.289Q641.85 144.116 645.98 144.021Q650.111 143.926 654.243 143.908Q658.375 143.891 662.506 143.951Q666.637 144.011 670.767 144.149Q674.896 144.287 679.022 144.503Q683.149 144.718 687.27 145.011Q691.391 145.304 695.506 145.675Q699.622 146.046 703.729 146.494Q707.837 146.942 711.935 147.467Q716.033 147.992 720.121 148.594Q724.208 149.196 728.284 149.875Q732.36 150.554 736.422 151.309Q740.484 152.065 744.531 152.897Q748.578 153.728 752.609 154.636Q756.64 155.544 760.653 156.527Q764.666 157.51 768.66 158.569Q772.654 159.628 776.627 160.761Q780.601 161.895 784.552 163.103Q788.503 164.311 792.431 165.593Q796.359 166.875 800.262 168.231Q804.165 169.587 808.042 171.016Q811.918 172.445 815.768 173.947Q819.617 175.449 823.437 177.022Q827.257 178.596 831.048 180.242Q834.838 181.887 838.596 183.603Q842.354 185.32 846.08 187.107Q849.805 188.893 853.497 190.75Q857.188 192.606 860.844 194.532Q864.499 196.458 868.118 198.452Q871.737 200.446 875.317 202.508Q878.898 204.569 882.439 206.698C893.186 213.134 903.808 220.408 913.961 227.737C925.721 236.225 936.692 245.037 950.1 250.898L950.001 261.805C943.51 260.597 937.3 258.601 931.537 255.336C923.933 251.03 913.547 241.494 905.832 235.991Q891.102 225.587 875.66 216.271Q860.219 206.955 844.147 198.775C818.441 186.013 790.694 176.795 762.937 169.703C667.403 145.294 569.266 156.673 475.608 183.498C448.853 191.161 422.495 200.345 396.127 209.235C354.707 223.69 313.732 239.402 271.958 252.838C198.905 276.334 128.558 290.615 51.5189 290.581L51.5199 278.341C63.664 277.971 75.7719 277.981 87.9152 277.282Q110.535 275.958 132.992 272.948Q155.45 269.937 177.619 265.256C278.784 243.925 373.176 200.614 472.287 172.316C524.856 157.307 574.818 148.223 629.469 144.712Z"/>
	<path fill="#F5C956" transform="scale(0.27832 0.27832)" d="M623.496 86.2793C717.334 81.6299 812.164 101.855 892.02 152.424C912.48 165.38 931.351 180.804 950.311 195.812C950.74 212.325 950.458 228.986 950.311 245.506C937.156 238.398 925.749 229.336 913.49 220.891C893.503 207.12 872.693 193.875 850.897 183.153C731.322 124.326 601.832 131.075 476.567 165.671C450.957 172.744 425.756 181.391 400.621 189.967C358.974 203.597 317.979 219.229 276.339 232.851C221.833 250.681 165.797 265.031 108.613 270.568C89.6365 272.406 70.6818 272.987 51.6335 273.264L51.6503 226.957C133.141 225.29 215.615 202.298 292.246 175.48C396.924 138.847 511.517 89.5079 623.496 86.2793Z"/>
	<path fill="#020100" transform="scale(0.27832 0.27832)" d="M591.935 235.222C601.672 234.571 611.683 234.917 621.427 235.207Q629.195 235.4 636.949 235.885Q644.704 236.369 652.435 237.145Q660.166 237.92 667.863 238.986Q675.559 240.051 683.21 241.405Q690.861 242.758 698.456 244.398Q706.051 246.038 713.579 247.962Q721.107 249.886 728.557 252.091Q736.008 254.297 743.37 256.78C837.389 288.41 888.305 347.049 949.733 420.706C955.483 427.599 961.078 434.623 966.917 441.441C974.086 449.812 984.325 459.741 989.235 469.627C980.377 466.09 971.92 461.078 963.536 456.558C940.433 444.102 916.538 430.247 890.737 424.259C872.123 419.939 854.548 420.735 838.1 431.117C810.305 448.663 798.098 494.895 791.081 525.354C782.601 562.165 779.743 603.157 800.741 636.472C813.081 656.051 830.868 669.845 853.624 674.986C873.767 679.537 896.563 677.312 914.211 666.107C930.728 655.62 939.608 638.981 943.783 620.39C940.609 623.874 937.492 627.025 933.663 629.808C919.9 639.813 902.533 643.323 885.828 640.497C870.446 637.894 854.977 627.132 846.084 614.502Q845.173 613.186 844.328 611.827Q843.482 610.468 842.704 609.07Q841.926 607.672 841.218 606.237Q840.509 604.802 839.871 603.334Q839.233 601.866 838.667 600.369Q838.102 598.872 837.61 597.349Q837.118 595.826 836.702 594.281Q836.285 592.736 835.944 591.172Q835.603 589.609 835.339 588.03Q835.075 586.452 834.889 584.862Q834.702 583.273 834.593 581.676Q834.484 580.08 834.454 578.48Q834.423 576.88 834.47 575.28Q834.518 573.68 834.643 572.085Q834.769 570.489 834.972 568.902Q835.175 567.315 835.456 565.739Q835.78 564.03 836.188 562.339Q836.597 560.647 837.088 558.978Q837.58 557.31 838.153 555.667Q838.726 554.024 839.38 552.412Q840.034 550.8 840.767 549.222Q841.499 547.644 842.309 546.104Q843.119 544.565 844.004 543.067Q844.889 541.569 845.847 540.117Q846.805 538.664 847.834 537.261Q848.862 535.858 849.959 534.508Q851.056 533.157 852.218 531.862Q853.38 530.568 854.605 529.332Q855.829 528.096 857.114 526.923Q858.398 525.749 859.739 524.641Q861.079 523.532 862.473 522.491Q863.867 521.45 865.311 520.479C880.613 510.155 902.021 506.989 919.946 510.527Q920.902 510.719 921.852 510.934Q922.803 511.149 923.748 511.388Q924.694 511.626 925.633 511.888Q926.572 512.15 927.504 512.435Q928.436 512.72 929.361 513.027Q930.286 513.335 931.203 513.665Q932.12 513.996 933.029 514.349Q933.938 514.702 934.838 515.077Q935.737 515.452 936.628 515.849Q937.518 516.246 938.398 516.665Q939.278 517.084 940.148 517.524Q941.018 517.965 941.876 518.427Q942.735 518.888 943.582 519.371Q944.429 519.854 945.263 520.357Q946.098 520.861 946.92 521.385Q947.742 521.909 948.551 522.453Q949.36 522.997 950.155 523.56Q950.951 524.124 951.732 524.707Q952.513 525.29 953.28 525.892Q954.046 526.495 954.798 527.115Q955.549 527.736 956.285 528.376Q957.021 529.015 957.741 529.672Q958.461 530.329 959.165 531.004Q959.869 531.678 960.556 532.37Q961.242 533.062 961.912 533.77Q962.582 534.479 963.234 535.203Q963.886 535.928 964.519 536.669Q965.153 537.409 965.769 538.165Q966.384 538.921 966.981 539.692Q967.578 540.463 968.155 541.248Q968.733 542.034 969.291 542.833Q969.849 543.632 970.387 544.445C988.582 571.798 993.887 603.061 987.431 635.201C982.097 661.757 965.886 688.032 943.146 703.092C915.224 721.583 878.976 728.101 846.253 721.48C816.68 715.497 785.22 696.561 768.284 671.101C767.65 687.199 768.763 703.455 770.166 719.484C773.665 759.458 780.473 798.884 793.561 836.911Q797.572 848.807 802.883 860.183C805.055 864.931 807.712 869.609 809.421 874.542C809.481 874.715 809.537 874.89 809.595 875.064L800.087 913.972C798.119 922.174 796.561 930.593 794.105 938.658C785.803 933.65 743.877 906.385 740.349 900.498C736.698 894.408 730.817 863.927 728.919 854.885C711.378 771.343 715.911 688.91 729.125 605.254Q733.611 575.275 739.667 545.572C743.291 528.358 747.656 511.333 751.78 494.236C745.582 498.036 739.681 502.538 733.814 506.837Q710.485 523.598 689.373 543.077C625.675 600.775 571.936 668.396 515.478 732.916C497.45 753.517 478.561 773.101 459.407 792.638C393.702 858.613 312.321 922.766 217.623 937.099C171.302 944.11 124.771 934.995 86.8244 906.814C59.7131 886.68 41.1047 854.75 36.371 821.481C31.9686 790.542 39.3034 758.205 58.3469 733.172C73.3788 713.412 95.5312 699.319 120.312 696.021C142.03 693.131 164.215 697.962 181.706 711.5Q183.121 712.579 184.481 713.726Q185.841 714.873 187.142 716.086Q188.444 717.299 189.684 718.575Q190.924 719.85 192.1 721.186Q193.276 722.521 194.384 723.913Q195.492 725.305 196.531 726.749Q197.569 728.194 198.535 729.689Q199.5 731.183 200.391 732.723Q201.282 734.263 202.096 735.845Q202.909 737.427 203.644 739.048Q204.379 740.668 205.032 742.323Q205.686 743.978 206.257 745.663Q206.829 747.348 207.316 749.059Q207.803 750.77 208.206 752.503Q208.608 754.236 208.924 755.987Q209.241 757.738 209.47 759.502Q209.651 761.077 209.753 762.658Q209.856 764.24 209.88 765.824Q209.904 767.409 209.85 768.993Q209.795 770.577 209.663 772.157Q209.53 773.736 209.32 775.307Q209.11 776.878 208.822 778.436Q208.534 779.995 208.169 781.537Q207.805 783.08 207.364 784.602Q206.924 786.125 206.409 787.623Q205.894 789.122 205.305 790.594Q204.716 792.065 204.056 793.506Q203.395 794.947 202.664 796.353Q201.933 797.759 201.133 799.127Q200.333 800.496 199.467 801.823Q198.6 803.15 197.669 804.432Q196.738 805.715 195.745 806.95C184.821 820.626 170.422 829.235 152.929 831.1C136.012 832.903 120.296 827.517 107.216 816.8C94.8503 806.668 87.8056 793.13 86.181 777.258C83.6595 784.888 81.7938 792.469 81.5352 800.537C80.8503 821.896 89.679 843.106 104.357 858.457C125.489 880.557 156.46 890.026 186.408 890.687C206.464 891.13 226.868 887.043 245.944 881.02C371.734 841.303 480.947 696.948 566.453 600.408Q598.405 564.346 633.439 531.27C615.219 535.447 595.001 536.323 576.346 536.723C504.541 538.264 435.422 519.621 367.924 496.962C337.856 486.868 308.246 475.963 277.761 467.084C215.001 448.804 135.778 434.711 70.33 441.267C69.7625 432.756 70.03 424.099 70.0195 415.571L70.056 370.976C77.0413 370.284 84.2718 370.58 91.2965 370.445Q103.903 370.1 116.469 369.033Q132.199 367.607 147.832 365.349Q163.465 363.091 178.956 360.008Q194.447 356.924 209.753 353.023Q225.059 349.123 240.136 344.416C328.743 317.188 410.241 269.156 500.626 247.332C530.737 240.062 561.004 236.364 591.935 235.222Z"/>
	<path fill="#F5C956" transform="scale(0.27832 0.27832)" d="M781.451 424.626L781.495 424.652L781.601 425.384C779.806 428.392 777.574 431.082 775.723 434.045C773.774 437.163 771.954 442.199 769.282 444.634L768.532 443.594C767.211 440.532 766.082 437.502 765.086 434.319C770.433 430.914 775.966 427.802 781.451 424.626Z"/>
	<path fill="#F5C956" transform="scale(0.27832 0.27832)" d="M759.566 437.367L760.031 437.495C762.588 439.666 765.091 449.886 766.244 453.388C759.751 458.557 752.2 462.842 745.404 467.697C742.575 461.795 740.498 455.302 738.274 449.147Q749.147 443.668 759.566 437.367Z"/>
	<path fill="#F5C956" transform="scale(0.27832 0.27832)" d="M424.939 467.634Q435.813 470.898 446.743 473.971Q444.88 484.108 443.813 494.359C441.143 495.15 426.553 490.157 422.97 489.142C423.993 482.012 424.064 474.784 424.939 467.634Z"/>
	<path fill="#F5C956" transform="scale(0.27832 0.27832)" d="M489.168 483.103L510.554 485.783C509.479 493.134 509.51 500.569 508.694 507.944Q497.82 506.361 487.018 504.35C487.845 497.272 488.035 490.153 489.168 483.103Z"/>
	<path fill="#F5C956" transform="scale(0.27832 0.27832)" d="M632.402 482.677L633.173 482.649C635.051 484.541 637.052 500.927 637.818 504.745C631.374 506.259 624.67 507.105 618.154 508.331L616.83 508.371C615.088 506.409 614.063 489.378 613.663 485.581Q623.049 484.236 632.402 482.677Z"/>
	<path fill="#F5C956" transform="scale(0.27832 0.27832)" d="M552.15 489.111Q562.481 489.177 572.809 488.935C573.066 493.018 574.719 509.381 572.875 512.245C565.774 512.332 558.651 512.117 551.549 512.017C551.592 504.388 551.942 496.738 552.15 489.111Z"/>
	<path fill="#F5C956" transform="scale(0.27832 0.27832)" d="M695.045 466.516C695.076 466.53 695.111 466.537 695.136 466.558C697.284 468.367 700.974 484.67 701.927 488.063Q691.758 491.106 681.649 494.343L680.578 494.371C678.37 491.972 675.942 476.702 675.215 472.855Q685.238 470.024 695.045 466.516Z"/>
	<path fill="#F5C956" transform="scale(0.27832 0.27832)" d="M365.069 444.769Q375.664 449.58 386.425 454.009C385.151 461.412 384.273 468.746 383.901 476.253C378.659 476.034 368.079 471.275 362.756 469.304C363.275 461.133 363.812 452.862 365.069 444.769Z"/>
	<path fill="#F5C956" transform="scale(0.27832 0.27832)" d="M129.036 392.702C130.455 392.509 131.598 392.494 133.024 392.624C134.771 394.384 134.636 412.822 134.751 416.546Q125.032 415.695 115.278 415.516L108.511 415.484Q108.712 404.97 108.2 394.467Q118.631 393.737 129.036 392.702Z"/>
	<path fill="#305A89" transform="scale(0.27832 0.27832)" d="M87.9238 394.77C93.2698 394.549 98.6401 394.568 103.991 394.491C104.436 401.507 104.816 408.532 105.581 415.522Q99.2263 415.5 92.8755 415.723Q84.2364 416.256 75.5854 416.541L75.5446 394.985L87.9238 394.77Z"/>
	<path fill="#305A89" transform="scale(0.27832 0.27832)" d="M390.695 455.713C399.965 459.943 410.383 463.271 420.173 466.079C419.392 473.051 420.005 481.221 418.356 487.935L388.507 478.389C388.995 470.818 389.854 463.252 390.695 455.713Z"/>
	<path fill="#305A89" transform="scale(0.27832 0.27832)" d="M451.188 475.255C462.198 477.194 473.188 479.933 484.189 482.06C483.916 489.364 482.761 496.645 482.349 503.955C471.134 501.705 460.051 498.777 448.829 496.638L451.188 475.255Z"/>
	<path fill="#305A89" transform="scale(0.27832 0.27832)" d="M515.051 486.419C525.763 487.082 536.36 488.26 547.114 488.68C547.064 496.347 546.755 504.023 546.543 511.688C535.662 511.18 524.806 509.949 513.966 508.906C513.974 501.434 514.513 493.874 515.051 486.419Z"/>
	<path fill="#305A89" transform="scale(0.27832 0.27832)" d="M669.913 474.136C671.771 475.966 674.738 493.451 675.434 496.7Q659.754 500.045 644.177 503.844L643.637 503.821C641.849 501.978 639.703 484.968 639.065 481.335Q654.649 478.422 669.913 474.136Z"/>
	<path fill="#F5C956" transform="scale(0.27832 0.27832)" d="M435.3 293.433L436.142 293.482C437.489 294.929 445.134 316.309 446.598 320.127C438.789 323.098 430.873 325.652 423.142 328.855L422.087 328.909C419.53 326.228 413.596 307.574 411.891 302.902C419.578 299.515 427.576 296.773 435.3 293.433Z"/>
	<path fill="#305A89" transform="scale(0.27832 0.27832)" d="M605.52 486.203C606.799 486.025 607.959 485.853 609.008 486.614C610.576 493.789 610.701 502.016 611.087 509.385Q597.407 511.129 583.631 511.75C581.967 511.953 580.25 512.205 578.764 511.394C577.248 504.184 577.644 495.829 577.423 488.434Q591.496 487.623 605.52 486.203Z"/>
	<path fill="#305A89" transform="scale(0.27832 0.27832)" d="M878.336 376.158L879.611 376.177C887.331 382.359 897.389 394.596 903.904 402.434C892.739 398.788 882.15 396.528 870.376 395.939C865.871 395.736 861.486 395.764 856.981 395.994Q848.331 388.922 839.016 382.753C852.152 381.219 865.306 378.457 878.336 376.158Z"/>
	<path fill="#305A89" transform="scale(0.27832 0.27832)" d="M162.326 388.176C163.443 387.965 164.111 387.859 165.211 388.185C167.54 393.697 167.458 412.943 167.595 419.737C160.523 418.546 153.168 417.617 145.996 417.436C143.691 417.199 141.366 417.098 139.053 416.95Q138.789 404.311 138.339 391.678C146.335 390.918 154.384 389.403 162.326 388.176Z"/>
	<path fill="#F5C956" transform="scale(0.27832 0.27832)" d="M375.546 317.452C375.581 317.465 375.62 317.469 375.65 317.49C378.057 319.198 385.372 340.923 386.744 344.881C378.953 348.84 371.001 352.526 363.12 356.304C362.014 356.845 362.61 356.686 361.324 356.749C360.01 353.209 359.271 349.364 358.244 345.722Q355.535 336.461 352.699 327.239C360.435 324.295 367.908 320.65 375.546 317.452Z"/>
	<path fill="#F5C956" transform="scale(0.27832 0.27832)" d="M856.829 355.534L857.208 355.423C859.928 355.698 872.902 369.329 875.749 372.08C871.008 372.85 836.955 379.346 835.599 379.206C835.003 379.144 833.931 378.51 833.336 378.262C826.411 374.711 819.381 371.276 812.637 367.389C826.973 362.377 842.26 359.887 856.829 355.534Z"/>
	<path fill="#305A89" transform="scale(0.27832 0.27832)" d="M733.321 451.008C736.224 454.237 739.289 466.344 740.989 471.092C730.784 478.119 719.409 482 707.777 485.999L707.299 485.91C705.11 483.493 701.535 468.457 700.37 464.422C711.549 460.939 722.63 455.771 733.321 451.008Z"/>
	<path fill="#305A89" transform="scale(0.27832 0.27832)" d="M407.497 304.501C409.665 305.856 416.275 327.364 417.624 331.273C408.498 334.751 399.581 339.043 390.68 343.06C387.736 338.466 383.065 322.076 380.325 315.391Q393.818 309.714 407.497 304.501Z"/>
	<path fill="#305A89" transform="scale(0.27832 0.27832)" d="M329.319 425.6Q344.919 434.287 360.707 442.626C359.237 450.267 358.732 458.289 357.842 466.027L357.402 467.402C353.674 467.942 334.614 460.399 329.501 458.655Q329.581 442.127 329.319 425.6Z"/>
	<path fill="#F5C956" transform="scale(0.27832 0.27832)" d="M505.452 272.677C507.019 274.857 511.681 299.947 512.782 304.454C506.833 305.516 490.989 309.628 485.958 309.423Q480.563 295.18 477.13 280.341Q491.222 276.255 505.452 272.677Z"/>
	<path fill="#F5C956" transform="scale(0.27832 0.27832)" d="M194.015 382.136L194.664 382.42C196.587 389.292 196.996 415.159 197.075 423.141C190.045 421.743 182.674 421.044 175.539 420.326C174.468 420.231 173.043 420.281 172.141 419.653C171.516 419.218 170.407 390.488 170.069 386.768C178.087 385.845 186.129 383.834 194.015 382.136Z"/>
	<path fill="#305A89" transform="scale(0.27832 0.27832)" d="M472.009 281.568L472.421 281.991L472.275 281.519C473.27 282.323 480.97 307.337 482.17 310.769C471.678 313.177 461.106 315.633 450.863 318.965L450.257 318.777C447.215 313.897 442.601 297.765 440.694 291.584C451.1 288.17 461.483 284.593 472.009 281.568Z"/>
	<path fill="#F5C956" transform="scale(0.27832 0.27832)" d="M296.929 403.833C300.396 405.846 303.676 408.64 306.955 410.999Q315.458 417.236 324.51 422.647C324.471 433.919 324.927 445.165 324.7 456.444C320.473 456.666 304.922 450.143 299.51 448.646C298.424 433.762 297.482 418.745 296.929 403.833Z"/>
	<path fill="#305A89" transform="scale(0.27832 0.27832)" d="M346.631 329.463L347.253 329.36C350.76 331.867 355.671 354.551 356.869 359.607C347.862 364.242 339.086 369.66 330.234 374.616L329.322 374.696C325.231 366.868 322.406 349.956 320.514 340.926C329.048 336.749 337.849 333.079 346.631 329.463Z"/>
	<path fill="#F5C956" transform="scale(0.27832 0.27832)" d="M578.81 261.296C579.527 261.222 580.248 261.137 580.969 261.106C582.169 261.055 583.396 260.769 584.289 261.603C584.09 267.136 581.929 273.29 580.769 278.767C579.317 285.62 578.328 292.585 577.371 299.522Q566.113 299.215 554.879 300.011L553.22 299.926C551.488 298.153 550.852 268.559 550.648 264.183C559.862 262.484 569.471 261.956 578.81 261.296Z"/>
	<path fill="#F5C956" transform="scale(0.27832 0.27832)" d="M315.948 342.553C317.829 346.227 318.37 352.533 319.436 356.709C321.207 363.643 323.289 370.513 325.295 377.383C315.649 382.297 306.622 388.769 297.825 395.037L296.991 395.471L296.314 395.131C294.975 390.174 294.952 384.547 294.17 379.432C292.817 370.575 290.954 361.804 289.159 353.029C298.203 349.886 307.103 346.214 315.948 342.553Z"/>
	<path fill="#305A89" transform="scale(0.27832 0.27832)" d="M545.629 264.726L546.296 265.135C547.395 276.87 547.069 288.716 548.48 300.449C544.305 300.799 518.418 304.11 516.928 303.533L516.427 301.889Q512.864 286.761 509.998 271.485Q527.69 267.453 545.629 264.726Z"/>
	<path fill="#F5C956" transform="scale(0.27832 0.27832)" d="M801.593 312.624C810.229 317.315 818.141 322.703 825.808 328.819C808.409 334.972 790.87 340.452 773.618 347.045C769.907 346.962 754.46 339.13 749.573 337.143C766.287 328.053 784.426 320.921 801.593 312.624Z"/>
	<path fill="#305A89" transform="scale(0.27832 0.27832)" d="M829.762 331.972C833.272 333.065 850.577 348.607 854.402 352.011C849.684 353.142 806.254 364.249 805.831 364.225L805.958 363.771L805.324 363.968L805.302 363.744C796.838 358.204 787.047 354.021 777.963 349.562C783.937 347.982 789.787 345.578 795.668 343.65C807.039 339.922 818.679 336.474 829.762 331.972Z"/>
	<path fill="#305A89" transform="scale(0.27832 0.27832)" d="M223.906 374.594C224.689 374.508 224.223 374.504 225.293 374.775C227.051 393.032 228.547 411.359 228.583 429.707C222.164 427.963 215.433 426.716 208.89 425.492L201.155 423.913Q201.169 402.299 199.074 380.787C207.363 379.745 215.839 376.822 223.906 374.594Z"/>
	<path fill="#F5C956" transform="scale(0.27832 0.27832)" d="M731.513 279.525C741.992 282.861 751.969 287.025 762.066 291.344C746.546 301.268 730.068 309.766 714.797 320.097L711.292 322.858C702.963 319.841 694.416 317.318 685.897 314.895C692.729 310.049 699.157 304.572 705.711 299.357Q718.476 289.264 731.513 279.525Z"/>
	<path fill="#F5C956" transform="scale(0.27832 0.27832)" d="M647.533 261.994C659.508 263.837 671.486 265.117 683.39 267.473C672.493 279.229 661.53 290.514 651.278 302.886L648.332 306.227C638.552 304.375 628.649 303.159 618.782 301.879C626.849 287.826 638.433 275.457 647.533 261.994Z"/>
	<path fill="#305A89" transform="scale(0.27832 0.27832)" d="M766.546 293.363C770.79 293.664 792.916 306.963 798.121 309.771C780.962 318.025 763.516 325.43 746.667 334.339C746.513 334.42 746.365 334.513 746.206 334.581C743.17 335.867 720.583 326.118 715.911 324.585C720.047 321.173 724.747 318.464 729.288 315.632C741.55 307.985 754.501 301.296 766.546 293.363Z"/>
	<path fill="#305A89" transform="scale(0.27832 0.27832)" d="M688.323 268.306C701.569 270.968 714.516 274.426 727.485 278.185C713.699 287.29 700.885 298.151 687.785 308.212L680.625 313.225C671.332 310.955 662.004 308.693 652.565 307.116C658.27 300.583 663.938 293.98 669.902 287.68C676.029 281.208 682.47 275.033 688.323 268.306Z"/>
	<path fill="#F5C956" transform="scale(0.27832 0.27832)" d="M252.749 365.983L253.663 366.383C254.935 370.451 254.882 375.714 255.309 379.99C257.171 398.613 259.067 417.802 259.028 436.522L240.542 432.166L232.799 430.51C232.548 411.434 231.752 392.272 229.531 373.316Q241.276 370.08 252.749 365.983Z"/>
	<path fill="#305A89" transform="scale(0.27832 0.27832)" d="M588.95 260.516Q616.159 259.957 643.325 261.584C636.183 271.019 629.225 280.468 622.448 290.169L613.989 301.849C603.115 300.732 592.051 300.311 581.129 299.892C583.164 286.632 585.943 273.582 588.95 260.516Z"/>
	<path fill="#305A89" transform="scale(0.27832 0.27832)" d="M746.247 671.462C746.744 671.98 746.753 672.908 746.764 673.616C746.984 688.154 746.336 702.494 747.212 717.067C750.55 772.598 760.341 822.826 781.811 874.335C780.828 881.111 779.244 887.92 777.613 894.57L777.177 894.906C773.514 894.465 764.867 887.604 761.503 885.359C756.741 866.669 752.081 847.662 748.866 828.64Q746.883 816.493 745.497 804.264Q744.112 792.034 743.327 779.751Q742.542 767.469 742.359 755.162Q742.177 742.856 742.598 730.555C743.007 715.792 744.039 700.936 745.049 686.199C745.374 681.461 746.076 676.729 746.233 671.988L746.247 671.462Z"/>
	<path fill="#305A89" transform="scale(0.27832 0.27832)" d="M282.986 355.012L284.035 354.829C285.724 356.815 286.186 362.12 286.748 364.834C292.44 392.288 293.283 419.563 294.574 447.466C288.882 445.47 283.11 443.66 277.379 441.774Q270.453 439.665 263.498 437.652C264.451 413.284 260.598 388.191 258.464 363.913C266.698 361.215 274.836 357.973 282.986 355.012Z"/>
	<path fill="#F5C956" transform="scale(0.27832 0.27832)" d="M96.7536 420.723C153.116 419.256 212.622 428.453 266.836 443.758C301.934 453.666 336.687 465.675 371.226 477.36C392.663 484.613 414.048 492.044 435.871 498.079C492.355 513.698 552.031 520.97 610.421 514.167C649.403 509.625 681.962 499.698 718.733 487.356C689.018 509.511 660.187 532.87 633.741 558.892C589.311 602.608 550.446 651.738 509.314 698.461C465.343 748.409 419.242 798.114 366.31 838.763C355.228 847.273 343.478 854.94 331.651 862.364C291.085 887.831 245.815 909.197 197.332 912.205C162.253 914.382 122.986 904.773 96.2449 880.959C75.5116 862.494 61.6548 837.453 60.1674 809.454C58.8977 785.554 65.8352 761.504 82.104 743.637C94.1681 730.388 111.784 721.148 129.85 720.4C145.145 719.767 159.177 724.058 170.468 734.562C179.509 742.973 184.566 753.816 184.877 766.215Q184.895 767.224 184.863 768.232Q184.831 769.24 184.75 770.245Q184.669 771.251 184.538 772.251Q184.408 773.251 184.228 774.243Q184.049 775.236 183.821 776.218Q183.593 777.201 183.317 778.171Q183.041 779.141 182.718 780.097Q182.395 781.052 182.025 781.991Q181.655 782.929 181.24 783.848Q180.825 784.767 180.365 785.665Q179.905 786.563 179.401 787.437Q178.898 788.311 178.352 789.159Q177.806 790.007 177.219 790.827Q176.632 791.648 176.006 792.438Q175.38 793.229 174.715 793.988Q174.051 794.747 173.35 795.472Q172.702 796.152 172.021 796.799Q171.34 797.446 170.627 798.058Q169.915 798.671 169.172 799.246Q168.43 799.822 167.66 800.36Q166.889 800.898 166.093 801.396Q165.297 801.895 164.477 802.353Q163.657 802.811 162.815 803.228Q161.973 803.645 161.111 804.018Q160.249 804.392 159.37 804.723Q158.49 805.053 157.596 805.339Q156.701 805.625 155.793 805.866Q154.885 806.107 153.966 806.302Q153.047 806.497 152.119 806.646Q151.192 806.795 150.258 806.897Q149.324 807 148.386 807.055Q147.448 807.111 146.509 807.119C136.937 807.266 128.205 803.628 121.367 796.951C111.305 787.128 108.656 773.433 111.441 759.946C112.342 755.585 114.627 751.482 114.585 746.944L114.063 746.581C109.258 750.577 106.336 758.86 105.557 764.899Q105.418 765.958 105.332 767.022Q105.246 768.086 105.213 769.153Q105.179 770.221 105.199 771.288Q105.219 772.356 105.292 773.421Q105.365 774.486 105.491 775.547Q105.617 776.607 105.795 777.66Q105.974 778.712 106.204 779.755Q106.435 780.797 106.717 781.827Q106.999 782.857 107.331 783.872Q107.664 784.886 108.047 785.883Q108.43 786.88 108.862 787.856Q109.294 788.833 109.774 789.786Q110.254 790.74 110.781 791.669Q111.308 792.597 111.88 793.499Q112.452 794.4 113.069 795.272Q113.685 796.144 114.344 796.984Q114.948 797.757 115.59 798.498Q116.232 799.24 116.91 799.949Q117.588 800.658 118.301 801.333Q119.013 802.007 119.758 802.645Q120.503 803.283 121.279 803.884Q122.055 804.484 122.86 805.045Q123.664 805.606 124.496 806.127Q125.327 806.647 126.184 807.126Q127.04 807.604 127.919 808.04Q128.798 808.475 129.698 808.866Q130.597 809.258 131.515 809.604Q132.433 809.95 133.367 810.25Q134.301 810.55 135.249 810.803Q136.197 811.056 137.156 811.262Q138.115 811.468 139.083 811.626Q140.051 811.784 141.026 811.894C152.384 813.163 163.794 810.108 172.701 802.875C182.056 795.279 188.896 783.255 190.06 771.207C191.29 758.476 186.266 744.659 178.078 734.979C168.337 723.464 153.109 716.693 138.21 715.611C118.281 714.165 100.445 720.429 85.4268 733.537C66.9228 749.688 56.7123 771.796 55.1341 796.228C53.2731 825.038 62.8272 852.166 81.8544 873.819C105.831 901.105 141.552 915.347 177.39 917.401C218.059 919.731 258.88 906.819 294.917 888.945C315.388 878.792 335.712 866.927 354.406 853.784C402.441 820.012 454.307 768.28 493.65 724.133C507.913 708.129 521.511 691.567 535.503 675.334C545.604 663.617 556.026 652.17 566.169 640.486C584.609 619.248 602.991 598.303 622.501 578.019C630.894 569.294 639.291 560.426 648.304 552.341Q661.558 539.957 675.293 528.108Q689.027 516.259 703.22 504.964Q717.414 493.669 732.044 482.945Q746.674 472.221 761.717 462.086C758.8 470.319 756.283 478.717 753.792 487.088C747.732 490.639 741.975 494.968 736.196 498.965C694.898 527.536 659.212 563.042 625.234 599.79Q595.276 632.283 566.303 665.657Q539.509 697.359 512.368 728.765C470.971 775.75 420.289 827.225 369.4 863.783C309.911 906.521 233.972 944.156 158.604 931.648C119.207 925.109 85.3659 905.841 62.0495 873.041C44.5061 848.361 36.3725 815.086 41.5721 785.105C46.3081 757.796 60.9693 731.828 83.9088 715.906Q84.7599 715.307 85.6255 714.729Q86.4911 714.151 87.3707 713.594Q88.2503 713.038 89.1433 712.503Q90.0363 711.968 90.9423 711.456Q91.8482 710.943 92.7664 710.453Q93.6847 709.963 94.6148 709.496Q95.5448 709.028 96.4861 708.584Q97.4274 708.14 98.3793 707.719Q99.3312 707.298 100.293 706.901Q101.255 706.503 102.227 706.13Q103.198 705.756 104.179 705.406Q105.159 705.057 106.148 704.732Q107.137 704.406 108.133 704.105Q109.129 703.805 110.133 703.528Q111.136 703.252 112.146 703.001Q113.157 702.749 114.172 702.523Q115.188 702.296 116.21 702.095Q117.231 701.893 118.257 701.717Q119.282 701.541 120.312 701.39Q121.342 701.239 122.375 701.114Q123.409 700.988 124.445 700.888Q125.481 700.788 126.519 700.714Q127.557 700.64 128.597 700.591Q129.637 700.542 130.677 700.519Q131.718 700.495 132.759 700.498Q133.8 700.5 134.84 700.528Q135.881 700.556 136.92 700.61Q137.959 700.663 138.997 700.743Q140.035 700.822 141.071 700.927Q142.106 701.031 143.139 701.162Q144.172 701.292 145.201 701.447Q146.23 701.603 147.255 701.784Q148.993 702.108 150.714 702.517Q152.434 702.926 154.132 703.419Q155.83 703.912 157.502 704.487Q159.174 705.063 160.816 705.72Q162.458 706.377 164.065 707.114Q165.673 707.85 167.242 708.665Q168.812 709.48 170.339 710.371Q171.867 711.262 173.349 712.226Q174.831 713.191 176.263 714.227Q177.696 715.264 179.076 716.369Q180.457 717.474 181.781 718.646Q183.105 719.818 184.37 721.053Q185.636 722.289 186.839 723.584Q188.042 724.88 189.18 726.234Q190.318 727.587 191.388 728.995Q192.458 730.403 193.458 731.861C202.689 745.413 206.566 761.728 203.384 777.887C200.313 793.484 191.029 808.163 177.66 816.919C165.485 824.893 149.377 828.139 135.103 825.1Q133.737 824.815 132.387 824.464Q131.037 824.112 129.705 823.693Q128.374 823.275 127.066 822.791Q125.757 822.307 124.474 821.759Q123.19 821.211 121.936 820.6Q120.682 819.989 119.459 819.316Q118.236 818.644 117.048 817.912Q115.861 817.18 114.711 816.389Q113.561 815.599 112.451 814.753Q111.342 813.907 110.275 813.007Q109.209 812.107 108.189 811.155Q107.169 810.203 106.197 809.202Q105.225 808.201 104.304 807.153Q103.383 806.104 102.515 805.012Q101.647 803.919 100.834 802.785Q100.021 801.651 99.2654 800.478C89.9942 785.921 90.031 770.347 93.674 754.041C82.8989 764.658 76.1532 786.818 75.9304 801.734C75.5912 824.431 85.9261 847.21 101.723 863.242C124.341 886.196 155.776 896.008 187.507 896.109C206.447 896.169 225.678 892.539 243.786 887.153C302.323 869.743 354.191 831.735 398.646 790.832C405.557 784.473 412.082 777.678 418.821 771.135Q455.263 735.874 488.902 697.93C518.84 664.262 547.509 629.467 577.433 595.793Q601.739 568.977 627.65 543.709C634.997 536.663 642.959 530.282 650.183 523.103C632.803 526.519 615.592 529.52 597.914 530.894C517.436 537.147 439.286 515.511 363.807 490.126C350.602 485.685 337.563 480.772 324.354 476.355C294.116 466.243 263.243 456.958 232.196 449.66Q217.619 446.258 202.887 443.607Q188.156 440.957 173.307 439.066Q158.459 437.174 143.533 436.046Q128.607 434.919 113.643 434.558C100.9 434.376 88.2661 435.058 75.5419 435.54L75.5347 421.46L96.7536 420.723Z"/>
	<path fill="#F5C956" transform="scale(0.27832 0.27832)" d="M595.686 240.273C614.409 239.375 633.788 240.562 652.42 242.392C677.22 244.827 701.994 250.119 725.919 257.003Q736.735 260.022 747.33 263.745Q757.924 267.468 768.251 271.878Q778.578 276.289 788.593 281.368Q798.608 286.448 808.268 292.174C818.742 298.492 828.575 305.728 838.26 313.183C880.067 345.36 910.499 381.193 943.871 421.505L972.019 455.193C941.233 439.878 907.303 417.467 872.003 416.516C854.035 416.033 838.218 422.399 825.246 434.79C817.631 442.065 811.684 451.021 806.954 460.389C792.6 488.821 780.184 540.733 779.607 572.724C779.046 603.883 787.176 633.243 809.34 656.057Q810.099 656.824 810.876 657.572Q811.653 658.319 812.447 659.048Q813.242 659.777 814.055 660.487Q814.867 661.196 815.696 661.886Q816.525 662.576 817.371 663.245Q818.216 663.914 819.078 664.563Q819.94 665.212 820.817 665.839Q821.694 666.467 822.586 667.073Q823.477 667.68 824.384 668.264Q825.29 668.849 826.21 669.411Q827.131 669.974 828.064 670.513Q828.998 671.053 829.944 671.571Q830.891 672.088 831.849 672.582Q832.808 673.076 833.778 673.547Q834.748 674.018 835.73 674.465Q836.711 674.912 837.703 675.336Q838.695 675.759 839.697 676.158Q840.699 676.557 841.71 676.932Q842.721 677.307 843.741 677.658Q844.761 678.008 845.789 678.333Q846.818 678.659 847.853 678.959Q848.889 679.26 849.932 679.535Q850.975 679.811 852.024 680.061Q853.073 680.311 854.128 680.535Q855.183 680.76 856.243 680.959Q857.303 681.158 858.367 681.331Q859.431 681.505 860.5 681.652Q861.568 681.8 862.64 681.921Q863.711 682.043 864.786 682.138Q865.86 682.234 866.936 682.304Q868.012 682.373 869.09 682.417Q870.168 682.461 871.246 682.478C891.9 682.746 912.634 676.482 927.531 661.766C945.681 643.837 948.877 627.342 949.107 602.913C945.817 609.793 941.721 615.521 936.158 620.761C924.977 631.294 910.644 636.894 895.241 636.364Q893.84 636.307 892.444 636.182Q891.048 636.057 889.66 635.863Q888.272 635.669 886.895 635.406Q885.518 635.144 884.155 634.815Q882.793 634.485 881.448 634.089Q880.103 633.693 878.78 633.232Q877.456 632.77 876.157 632.243Q874.858 631.717 873.586 631.127Q872.315 630.538 871.073 629.886Q869.832 629.235 868.625 628.523Q867.417 627.811 866.246 627.041Q865.075 626.271 863.943 625.444Q862.811 624.617 861.722 623.735Q860.632 622.854 859.587 621.919Q858.542 620.985 857.544 620.001Q856.546 619.016 855.598 617.984C844.833 606.259 838.633 590.07 839.427 574.116C840.241 557.737 848.775 541.555 860.88 530.695C874.538 518.444 891.805 513.455 909.958 514.544C929.588 515.722 947.375 525.191 960.215 539.939C978.764 561.242 986.763 589.996 984.789 617.885C982.811 645.84 971.034 673.23 949.486 691.667C926.265 711.533 892.746 721.334 862.338 718.91C830.924 716.407 800.406 700.892 779.248 677.571C773.858 671.631 770.228 664.538 765.034 658.547C764.912 658.407 764.787 658.269 764.664 658.131Q764.216 665.064 763.98 672.007Q763.744 678.95 763.719 685.897Q763.695 692.844 763.883 699.789Q764.07 706.733 764.469 713.669Q764.868 720.605 765.479 727.525Q766.089 734.445 766.91 741.344Q767.731 748.242 768.762 755.112Q769.793 761.982 771.033 768.818Q772.273 775.654 773.721 782.448Q775.169 789.243 776.824 795.99Q778.478 802.737 780.337 809.431Q782.197 816.125 784.259 822.759Q786.322 829.392 788.586 835.96Q790.849 842.528 793.313 849.024Q795.776 855.52 798.436 861.938Q801.096 868.355 803.95 874.689C800.554 893.54 795.065 912.16 791.08 930.929C783.611 926.582 776.511 921.072 769.389 916.161C761.056 910.416 752.242 904.929 744.376 898.563C738.93 877.926 733.832 856.974 730.217 835.923C723.603 797.406 721.222 756.782 722.652 717.751Q723.241 703.645 724.225 689.562Q725.208 675.478 726.584 661.427Q727.961 647.377 729.729 633.37Q731.498 619.363 733.657 605.411Q735.816 591.459 738.364 577.573Q740.912 563.687 743.847 549.878Q746.782 536.068 750.102 522.346Q753.422 508.624 757.124 495C761.188 480.508 765.252 464.734 771.546 451.058C774.571 444.486 778.578 438.286 782.734 432.371C791.686 419.629 802.769 410.51 815.583 401.879C818.567 399.869 824.189 397.123 826.519 394.727C826.645 394.597 826.748 394.447 826.863 394.308L826.734 395.028L827.24 394.36C825.46 393.419 823.807 392.295 822.128 391.189C809.805 399.586 797.939 408.871 785.424 416.919C778.516 421.361 771.235 425.304 764.093 429.354C723.122 452.587 679.813 469.484 633.246 477.467Q627.819 478.375 622.371 479.148Q616.923 479.922 611.458 480.561Q605.992 481.2 600.513 481.704Q595.033 482.208 589.543 482.577Q584.053 482.946 578.555 483.18Q573.057 483.413 567.556 483.511Q562.054 483.609 556.552 483.571Q551.049 483.534 545.549 483.36Q540.049 483.187 534.555 482.878Q529.062 482.569 523.577 482.125Q518.092 481.68 512.62 481.101Q507.148 480.522 501.692 479.808Q496.236 479.094 490.799 478.245Q485.362 477.397 479.948 476.415Q474.534 475.433 469.146 474.317Q463.757 473.202 458.398 471.954Q453.039 470.706 447.712 469.327Q442.385 467.947 437.094 466.437Q431.802 464.926 426.55 463.286Q421.298 461.646 416.087 459.876Q410.877 458.107 405.712 456.209Q400.547 454.312 395.43 452.288Q390.313 450.264 385.248 448.115Q380.182 445.965 375.171 443.691Q370.161 441.417 365.207 439.021Q360.254 436.624 355.361 434.106Q350.469 431.588 345.64 428.95Q340.811 426.312 336.048 423.556Q331.285 420.8 326.592 417.927Q321.899 415.055 317.278 412.067Q312.657 409.08 308.111 405.979Q303.565 402.879 299.097 399.667C312.056 390.093 326.048 382.335 340.044 374.422C396.551 342.477 457.376 316.988 522.038 308.118C598.505 297.628 671.312 310.959 742.292 339.631C760.736 347.081 778.592 355.014 796.165 364.335C816.026 374.869 832.836 383.857 850.868 397.517C831.302 403.022 817.519 412.406 803.852 427.349Q797.615 434.535 792.761 442.719C786.271 453.466 781.238 464.931 777.101 476.769C766.645 506.69 760.529 538.332 755.383 569.515Q749.032 605.984 745.228 642.806C740.216 688.531 735.994 735.016 738.773 781.053C740.983 817.667 748.656 852.751 757.361 888.261C765.581 892.763 773.299 898.674 781.131 903.848C782.374 894.444 784.125 884.66 787.4 875.743C784.966 868.045 781.182 860.587 778.244 853.041C774.26 842.807 771.083 832.138 768.156 821.559Q764.212 806.874 761.138 791.982Q758.064 777.09 755.871 762.044Q753.679 746.997 752.374 731.848Q751.07 716.698 750.659 701.498C750.321 690.028 750.606 678.507 750.73 667.034C751.014 640.777 752.218 614.122 757.003 588.248Q757.133 589.764 757.297 591.276Q757.461 592.789 757.659 594.297Q757.856 595.805 758.088 597.309Q758.32 598.813 758.585 600.311Q758.85 601.809 759.149 603.3Q759.448 604.792 759.78 606.277Q760.112 607.761 760.478 609.238Q760.843 610.715 761.242 612.183Q761.64 613.651 762.071 615.11Q762.503 616.569 762.967 618.018Q763.431 619.467 763.927 620.905Q764.423 622.343 764.952 623.77Q765.48 625.196 766.041 626.611Q766.601 628.025 767.193 629.426Q767.785 630.828 768.408 632.216Q769.031 633.603 769.686 634.977Q770.34 636.35 771.025 637.709Q771.709 639.067 772.425 640.41Q773.14 641.753 773.885 643.079Q774.63 644.406 775.405 645.715Q776.179 647.024 776.983 648.316Q777.787 649.607 778.62 650.881Q779.452 652.154 780.313 653.408Q781.174 654.662 782.063 655.897Q782.952 657.132 783.868 658.346Q784.785 659.56 785.728 660.754Q786.672 661.947 787.642 663.119Q788.612 664.291 789.608 665.441Q790.604 666.591 791.625 667.719Q792.647 668.846 793.693 669.95Q794.74 671.054 795.811 672.135Q796.882 673.215 797.977 674.271C819.127 694.649 846.655 704.258 875.75 703.684C901.292 703.18 927.201 693.92 945.004 675.151C962.388 656.823 971.453 631.095 970.572 605.966C969.784 583.514 961.534 560.633 944.769 545.193C933.174 534.515 916.953 527.396 900.996 528.233C887.47 528.943 873.739 535.35 864.785 545.553C856.551 554.935 851.617 567.54 852.586 580.102C853.518 592.202 859.271 604.556 868.594 612.442C877.078 619.619 888.996 624.114 900.161 623.116C912.278 622.032 923.144 617.29 930.968 607.832C937.084 600.438 942.553 588.331 941.335 578.526C940.992 575.764 940.087 571.183 937.763 569.46C936.916 570.315 936.772 571.174 936.664 572.352C935.763 582.225 936.697 588.265 931.85 597.638C927.238 606.559 918.88 613.3 909.343 616.301C898.958 619.57 888.414 618.392 878.8 613.35C869.188 608.31 862.479 599.993 859.313 589.629C856.074 579.025 857.093 567.049 862.35 557.26C868.25 546.273 878.685 538.581 890.541 535.065C903.939 531.091 918.115 534.072 930.186 540.651C945.658 549.084 956.751 565.934 961.631 582.521Q961.954 583.65 962.25 584.786Q962.545 585.922 962.813 587.065Q963.081 588.208 963.32 589.357Q963.56 590.506 963.772 591.661Q963.983 592.816 964.167 593.975Q964.35 595.135 964.505 596.298Q964.66 597.462 964.786 598.629Q964.913 599.796 965.011 600.966Q965.108 602.136 965.178 603.308Q965.247 604.479 965.288 605.653Q965.328 606.826 965.341 608Q965.353 609.174 965.336 610.347Q965.319 611.521 965.274 612.694Q965.229 613.867 965.155 615.039Q965.081 616.211 964.978 617.38Q964.876 618.549 964.745 619.716Q964.614 620.883 964.454 622.046Q964.295 623.209 964.107 624.367Q963.919 625.526 963.703 626.68Q963.487 627.834 963.243 628.982Q962.999 630.13 962.726 631.272Q962.454 632.414 962.154 633.549Q961.854 634.684 961.526 635.811Q961.199 636.939 960.844 638.058Q960.489 639.177 960.107 640.287Q959.724 641.397 959.315 642.497Q958.906 643.597 958.47 644.687Q958.034 645.777 957.571 646.856Q957.109 647.935 956.62 649.002Q956.131 650.07 955.617 651.125Q955.102 652.18 954.562 653.222Q954.022 654.264 953.456 655.293Q952.96 656.179 952.442 657.053Q951.924 657.927 951.385 658.788Q950.845 659.649 950.285 660.497Q949.725 661.344 949.144 662.177Q948.563 663.011 947.962 663.83Q947.361 664.649 946.74 665.453Q946.119 666.257 945.478 667.045Q944.838 667.833 944.178 668.606Q943.518 669.378 942.839 670.134Q942.161 670.89 941.464 671.63Q940.767 672.369 940.052 673.09Q939.337 673.812 938.605 674.516Q937.872 675.22 937.123 675.906Q936.374 676.592 935.607 677.259Q934.841 677.926 934.059 678.574Q933.277 679.222 932.479 679.851Q931.681 680.48 930.868 681.089Q930.055 681.698 929.227 682.287Q928.399 682.875 927.557 683.444Q926.715 684.012 925.859 684.559Q925.003 685.107 924.135 685.633Q923.266 686.159 922.384 686.664Q921.502 687.169 920.609 687.652Q919.715 688.135 918.81 688.596Q917.904 689.057 916.988 689.495Q916.072 689.933 915.145 690.349Q914.218 690.765 913.281 691.158Q912.344 691.551 911.398 691.921Q910.452 692.291 909.497 692.637Q908.542 692.984 907.579 693.307Q906.615 693.63 905.645 693.929Q904.674 694.228 903.696 694.503Q902.427 694.878 901.15 695.222Q899.872 695.566 898.586 695.878Q897.3 696.19 896.007 696.47Q894.714 696.75 893.414 696.998Q892.115 697.246 890.809 697.462Q889.504 697.678 888.194 697.861Q886.883 698.044 885.569 698.195Q884.254 698.346 882.936 698.464Q881.619 698.583 880.298 698.668Q878.978 698.754 877.656 698.807Q876.334 698.86 875.011 698.88Q873.688 698.9 872.365 698.887Q871.042 698.875 869.719 698.829Q868.397 698.784 867.076 698.706Q865.755 698.628 864.437 698.517Q863.119 698.406 861.803 698.263Q860.488 698.119 859.177 697.943Q857.865 697.767 856.559 697.559Q855.252 697.35 853.951 697.11Q852.65 696.869 851.355 696.596Q850.06 696.324 848.773 696.019Q847.485 695.714 846.206 695.378Q844.926 695.041 843.655 694.673Q842.384 694.305 841.123 693.905Q839.862 693.506 838.611 693.075Q837.359 692.645 836.119 692.183Q834.879 691.722 833.651 691.23Q832.423 690.738 831.207 690.215Q829.992 689.693 828.789 689.141Q827.587 688.589 826.398 688.007Q825.21 687.425 824.037 686.814Q822.863 686.203 821.705 685.563C794.412 670.284 774.149 640.902 765.928 611.016Q764.537 605.784 763.553 600.461Q762.568 595.137 761.997 589.754Q761.426 584.37 761.27 578.959Q761.115 573.547 761.377 568.14C762.167 552.193 765.952 535.999 769.742 520.546C775.96 495.191 782.84 469.87 795.946 447.088C807.93 426.256 827.197 409.148 850.752 402.966C874.11 396.836 899.745 403.949 920.134 415.772C908.428 398.361 892.289 380.582 877.104 366.071C850.989 341.116 823.809 318.479 792.286 300.61C721.824 260.666 632.109 248.035 552.352 258.57C513.297 263.728 474.172 274.576 437.153 287.852C398.853 301.588 361.974 318.776 324.385 334.247Q298.343 344.999 271.722 354.222Q245.1 363.445 217.988 371.108C169.658 384.3 125.411 388.879 75.5999 390.033Q75.6025 383.019 75.9604 376.015C89.6988 375.101 103.461 375.162 117.224 374.057Q130.897 372.88 144.498 371.053Q158.099 369.226 171.598 366.753Q185.096 364.281 198.462 361.168Q211.828 358.055 225.03 354.31C246.031 348.188 267.181 341.3 287.608 333.488C316.821 322.317 345.525 309.48 374.331 297.291C447.308 266.412 515.354 242.093 595.686 240.273Z"/>
	<path fill="#020100" transform="scale(0.27832 0.27832)" d="M555.308 319.717C568.728 318.534 582.951 319.452 596.4 320.264Q602.234 320.587 608.056 321.064Q613.879 321.542 619.687 322.174Q625.495 322.806 631.285 323.591Q637.074 324.377 642.841 325.316Q648.607 326.256 654.346 327.347Q660.086 328.439 665.794 329.683Q671.503 330.927 677.176 332.322Q682.85 333.717 688.484 335.262Q694.119 336.807 699.71 338.501Q705.302 340.195 710.846 342.037Q716.391 343.878 721.884 345.867Q727.378 347.855 732.817 349.988Q738.256 352.122 743.636 354.399Q749.017 356.676 754.335 359.095Q759.653 361.514 764.905 364.073Q770.157 366.632 775.339 369.33C786.838 375.222 799.626 381.173 809.767 389.249C794.699 393.79 773.5 409.174 758.502 417.013C696.548 449.393 649.027 464.984 579.085 468.877Q573.449 469.098 567.809 469.176Q562.168 469.254 556.528 469.188Q550.888 469.123 545.251 468.914Q539.614 468.706 533.985 468.354Q528.355 468.002 522.736 467.508Q517.117 467.013 511.513 466.376Q505.908 465.739 500.322 464.959Q494.735 464.18 489.17 463.259Q483.605 462.338 478.065 461.276Q472.526 460.214 467.015 459.012Q461.504 457.81 456.025 456.468Q450.546 455.126 445.103 453.645Q439.66 452.164 434.257 450.546Q428.854 448.928 423.493 447.173Q418.132 445.417 412.818 443.527Q407.504 441.636 402.239 439.611C390.335 435.114 328.15 408.035 324.93 400.888C325.147 400.254 325.398 399.795 325.859 399.301C332.565 392.112 351.499 383.525 360.764 378.746C422.805 346.739 484.872 323.547 555.308 319.717Z"/>
	<path fill="#305A89" transform="scale(0.27832 0.27832)" d="M514.683 329.161L515.397 329.144C516.147 329.968 515.861 329.982 515.716 331.065C513.581 347.048 512.472 363.461 514.719 379.493C519.127 410.94 533.658 444.968 559.508 464.613C546.966 463.656 537.091 461.595 525.436 456.621C508.736 448.404 493.861 434.31 484.152 418.488C469.5 394.611 466.236 365.159 472.608 338.142C486.453 333.943 500.441 331.509 514.683 329.161Z"/>
	<path fill="#305A89" transform="scale(0.27832 0.27832)" d="M613.321 326.375C627.974 327.211 644.606 330.351 659.082 333.202C665.341 349.861 667.142 368.732 663.261 386.155C656.757 415.349 639.237 436.686 614.391 452.499C601.631 459.909 590.974 462.597 576.672 464.67C582.044 459.406 587.116 453.807 591.458 447.656C616.174 412.641 620.557 367.639 613.321 326.375Z"/>
	<path fill="#FEFEFE" transform="scale(0.27832 0.27832)" d="M664.548 334.239C675.25 336.83 686.09 339.315 696.628 342.516C732.857 353.523 766.107 369.572 799.235 387.701C779.733 398.9 760.578 410.602 740.514 420.798C729.467 426.411 718.165 431.258 706.726 436.005C672.868 449.975 638.081 458.553 601.717 462.71C625.125 453.574 644.382 438.551 656.638 416.305C671.385 389.538 673.001 363.157 664.548 334.239Z"/>
	<path fill="#FEFEFE" transform="scale(0.27832 0.27832)" d="M465.336 340.011L466.504 339.849C467.318 340.709 466.641 342.721 466.488 343.925C463.771 365.416 464.319 385.715 472.825 406.035Q473.321 407.243 473.846 408.437Q474.371 409.632 474.926 410.814Q475.48 411.995 476.064 413.163Q476.648 414.33 477.26 415.483Q477.873 416.635 478.514 417.773Q479.154 418.91 479.823 420.031Q480.492 421.152 481.188 422.256Q481.885 423.36 482.608 424.446Q483.331 425.532 484.081 426.601Q484.831 427.669 485.608 428.718Q486.384 429.767 487.186 430.797Q487.988 431.827 488.815 432.837Q489.643 433.846 490.495 434.835Q491.347 435.824 492.223 436.791Q493.099 437.759 493.999 438.704Q494.899 439.65 495.822 440.573Q496.745 441.495 497.69 442.395Q498.636 443.295 499.603 444.171Q500.571 445.047 501.56 445.899Q502.549 446.751 503.559 447.578Q504.568 448.405 505.598 449.207Q506.628 450.009 507.677 450.785Q508.727 451.561 509.795 452.311Q510.863 453.061 511.95 453.784Q513.036 454.508 514.141 455.204Q515.245 455.9 516.366 456.569Q517.487 457.237 518.624 457.878Q519.761 458.518 520.914 459.131Q522.066 459.743 523.234 460.327Q524.401 460.91 525.583 461.465Q526.764 462.019 527.959 462.544Q529.154 463.07 530.362 463.565C492.311 459.221 457.477 452.875 420.95 441.034C389.934 430.61 360.793 416.374 332.13 400.736C343.19 392.802 355.842 386.616 367.943 380.459C399.465 364.421 431.426 350.299 465.336 340.011Z"/>
	<path fill="#363434" transform="scale(0.27832 0.27832)" d="M555.137 324.705C572.673 323.506 590.493 324.887 607.993 326.064C611.93 343.389 613.458 360.962 611.796 378.68C609.135 407.04 596.101 441.985 573.684 460.501C571.74 462.064 569.7 463.322 567.567 464.6C556.524 458.014 550.104 451.039 542.717 440.587C519.272 407.415 514.45 366.889 521.069 327.645Q538.06 325.681 555.137 324.705Z"/>
</svg>
